<svg width="385" height="12" viewBox="0 0 385 12" fill="none" xmlns="http://www.w3.org/2000/svg">
<mask id="mask0_1_121" style="mask-type:alpha" maskUnits="userSpaceOnUse" x="0" y="0" width="385" height="12">
<rect y="1.52588e-05" width="385" height="12" fill="#C4C4C4"/>
</mask>
<g mask="url(#mask0_1_121)">
<path d="M57.8283 -2.53795L58.7692 -2.69612L56.9382 -2.9229L57.8159 -3.0889C58.6961 -3.08738 59.8364 -2.83865 60.457 -2.97081C60.5328 -3.09878 59.5744 -3.13984 59.3298 -3.24179C59.1134 -3.34629 58.9368 -3.45011 58.8021 -3.55201C59.2814 -3.55091 59.8084 -3.52626 60.3517 -3.47952C61.0825 -3.40317 61.7994 -3.36606 62.4231 -3.37227C63.6986 -3.35165 64.9308 -3.37222 66.3175 -3.36769L65.8561 -3.67565L67.6433 -3.60361C67.8327 -3.58015 68.0585 -3.61788 68.2446 -3.58885C69.7934 -3.34328 70.4488 -3.4771 71.1923 -3.58806C71.3448 -3.61677 71.5284 -3.63821 71.7384 -3.65181C73.8046 -3.59298 75.6677 -3.24876 77.5284 -3.07205C77.8786 -3.02693 78.2145 -2.96902 78.5123 -2.90242C79.1595 -2.77294 79.8794 -2.66723 80.6062 -2.59495C81.3329 -2.52267 82.0433 -2.48615 82.6724 -2.4887C84.0636 -2.49156 85.6353 -2.40591 87.2355 -2.24006C87.7114 -2.18543 88.1875 -2.1494 88.6336 -2.13424C89.0798 -2.11909 89.4861 -2.12515 89.8266 -2.15206L90.9085 -1.97626C91.3774 -2.04759 91.972 -2.08673 92.6563 -2.0913C93.3406 -2.09586 94.1001 -2.06576 94.889 -2.00282C95.7296 -1.93454 96.5834 -1.88851 97.4556 -1.81632C99.2572 -1.67831 101.011 -1.59391 102.661 -1.56573C105.119 -1.48224 107.521 -1.41769 110.001 -1.31359C111.552 -1.26335 113.064 -1.23571 114.527 -1.23083C116.279 -1.21118 118.174 -1.11604 120.121 -0.950003C120.029 -0.794224 119.175 -0.840245 118.602 -0.845518C116.754 -0.87141 114.862 -0.938504 112.96 -0.988906C112.103 -1.00858 111.27 -1.01603 110.466 -1.01121C109.12 -1.01767 107.702 -1.05917 106.235 -1.13502C103.918 -1.21848 101.675 -1.2586 99.5289 -1.25497C99.3606 -1.2488 99.2065 -1.23786 99.069 -1.22235C99.0403 -1.20891 99.0346 -1.19196 99.0525 -1.17314C99.0704 -1.15431 99.1113 -1.13423 99.1712 -1.11482C99.2311 -1.09541 99.3081 -1.07733 99.3947 -1.0623C99.4814 -1.04726 99.5748 -1.03578 99.6661 -1.02896C100.518 -0.923385 101.434 -0.809998 102.238 -0.794048C102.269 -0.792854 102.302 -0.790132 102.335 -0.786075C102.367 -0.782018 102.399 -0.776726 102.427 -0.770588C104.227 -0.547715 105.706 -0.58543 107.108 -0.549169C109.435 -0.451169 111.679 -0.405393 113.805 -0.412532C114.126 -0.412047 114.473 -0.399307 114.833 -0.374774C117.059 -0.275324 119.141 -0.264201 120.981 -0.341908C121.738 -0.361595 122.442 -0.40579 123.256 -0.406529C123.757 -0.40957 124.193 -0.437773 124.538 -0.489448C124.883 -0.541124 125.13 -0.615203 125.264 -0.707231C125.607 -0.658779 125.956 -0.615598 126.305 -0.578205C126.514 -0.556824 126.715 -0.551144 126.866 -0.562333C127.017 -0.573521 127.108 -0.600741 127.121 -0.638485C127.183 -0.744194 126.706 -0.797279 126.293 -0.842546C126.542 -0.865216 126.823 -0.878553 127.13 -0.882235C128.854 -0.906389 130.703 -0.877881 132.637 -0.797337C134.138 -0.700927 135.337 -0.779398 136.917 -0.643441C137.107 -0.619981 137.262 -0.654415 137.437 -0.662682C137.891 -0.706221 138.458 -0.716007 139.087 -0.691184C139.716 -0.666361 140.388 -0.60768 141.046 -0.52023C141.865 -0.759151 143.635 -0.486203 144.942 -0.461673C145.345 -0.340169 144.883 -0.36153 144.863 -0.328149C144.843 -0.294767 144.863 -0.328156 144.705 -0.347707C143.4 -0.175637 141.612 -0.138117 139.593 -0.24042C139.219 -0.239994 138.863 -0.232155 138.528 -0.216978C138.021 -0.195495 137.449 -0.19764 136.838 -0.223319C136.169 -0.242177 135.556 -0.233221 135.026 -0.196881C134.721 -0.197472 134.463 -0.179267 134.276 -0.143942C134.09 -0.108616 133.98 -0.0573131 133.957 0.00519549C134.161 0.0533857 134.386 0.0974798 134.625 0.135728C135.873 0.286745 137.118 0.349255 138.114 0.310959C139.847 0.244975 141.91 0.309364 143.753 0.286839C144.999 0.277713 146.325 0.303706 147.706 0.364335C147.706 0.364335 147.67 0.425534 147.666 0.431098C147.83 0.457595 148.001 0.478854 148.172 0.493659C148.172 0.493659 148.172 0.49366 148.188 0.465842C148.112 0.439128 148.01 0.413998 147.892 0.393359L147.482 0.342527C147.761 0.329299 148.021 0.289914 148.312 0.313977C148.924 0.358683 149.51 0.377557 150.033 0.369477C150.556 0.361397 151.006 0.326523 151.356 0.266954C151.976 0.190606 152.747 0.155887 153.619 0.165037C154.287 0.156701 154.931 0.138788 155.548 0.111383C155.548 0.111383 155.588 0.0446264 155.88 0.00914406C155.603 -0.0346179 155.315 -0.0703539 155.028 -0.096423C153.779 -0.161552 152.526 -0.221118 151.299 -0.265645C150.847 -0.270456 150.422 -0.262995 150.032 -0.243409C148.952 -0.220489 147.738 -0.253019 146.462 -0.3391C146.462 -0.3391 146.21 -0.370378 146.084 -0.386017C146.442 -0.532772 147.676 -0.385854 148.176 -0.485239C148.479 -0.483431 149.014 -0.470933 148.996 -0.497098C148.954 -0.532011 148.949 -0.564448 148.981 -0.592076C149.013 -0.619705 149.082 -0.641846 149.181 -0.656906C149.281 -0.671968 149.409 -0.679581 149.558 -0.679195C149.706 -0.678807 149.87 -0.670427 150.038 -0.654667C151.443 -0.569403 152.767 -0.545691 153.928 -0.584986C154.368 -0.584228 154.861 -0.558956 155.298 -0.552635C155.565 -0.545019 155.81 -0.549254 156.017 -0.565106C157.072 -0.681848 158.492 -0.690374 160.064 -0.589403C160.824 -0.5531 161.533 -0.548247 162.157 -0.575088C162.6 -0.579891 162.788 -0.496892 163.104 -0.457791L164.444 -0.375367L162.723 -0.272087C163.091 -0.0354022 163.383 0.0426399 163.984 0.0573856C164.862 0.0796525 165.716 0.0897122 166.542 0.0875023C167.153 0.0855566 167.658 0.0345863 168.485 0.125119C168.631 0.139886 168.772 0.144665 168.884 0.138657C169.853 0.058281 171.02 0.0398349 172.305 0.084578C172.97 -0.0659305 174.103 0.0804029 175.152 0.198307C175.49 0.0849347 174.877 0.0328929 174.511 -0.0362825C175.388 -0.029201 176.272 -0.033245 177.177 -0.0166909C177.449 -0.0227162 177.76 -0.0124077 178.086 0.0134259C178.412 0.0392584 178.743 0.0799078 179.054 0.132197C179.205 0.165984 179.388 0.191412 179.564 0.203203C179.74 0.214992 179.896 0.212242 179.999 0.195521C180.469 0.146207 181.221 0.191628 181.61 0.108328C181.748 0.0891715 181.945 0.0864971 182.166 0.100774C182.387 0.11505 182.618 0.145351 182.817 0.186248C182.599 0.199008 182.405 0.219101 182.24 0.246085C181.645 0.33374 181.864 0.480204 182.619 0.693134C183.778 0.681424 184.962 0.684749 186.036 0.644618C186.635 0.608594 187.369 0.619855 188.155 0.67714C188.941 0.734422 189.748 0.835457 190.486 0.968879C190.753 1.02018 191.058 1.05572 191.339 1.06843C191.62 1.08113 191.858 1.07008 192.005 1.03747C192.096 0.999742 192.124 0.952 192.087 0.898376L191.329 0.804541C191.329 0.804541 191.359 0.754468 191.366 0.743341L192.455 0.734928C193.031 0.734635 193.632 0.749386 194.177 0.745183C194.977 0.717239 195.891 0.732814 196.861 0.790944C197.756 0.85055 198.636 0.895604 199.492 0.92571C200.321 0.956697 200.922 0.85791 201.71 0.842133C202.307 0.830241 202.963 0.84295 203.654 0.879761C204.847 0.94505 205.942 0.945172 206.839 0.880113C207.885 1.23064 208.393 1.28763 209.364 1.19291L209.821 1.16586L209.946 1.24104L210.295 1.2245C210.947 1.20978 211.6 1.19506 212.281 1.18981C213.227 1.22234 214.25 1.30985 215.248 1.44382C215.437 1.46728 215.695 1.54698 215.861 1.60939C216.028 1.67179 216.39 1.86006 216.657 1.98261C216.366 2.07207 216.045 2.15762 215.814 2.26047C215.791 2.27804 215.793 2.29899 215.821 2.32164C215.848 2.34429 215.9 2.36801 215.972 2.39088C216.045 2.41376 216.135 2.43515 216.236 2.45335C216.338 2.47154 216.447 2.48604 216.556 2.49566C216.768 2.5164 216.978 2.53023 217.176 2.53657C218.151 2.54751 219.085 2.53938 219.969 2.51226C220.291 2.474 220.733 2.47036 221.224 2.50194C221.715 2.53351 222.227 2.59849 222.678 2.68657C223.834 2.63369 225.178 2.64931 226.616 2.73235C228.137 2.68185 229.974 2.78397 231.395 2.67333C231.362 2.72896 231.509 2.82475 231.713 2.87994C232.037 2.96377 232.403 3.04145 232.797 3.10971L235.802 3.24299C235.914 3.31151 236.054 3.38089 236.221 3.4502C236.335 3.50495 236.534 3.55853 236.775 3.59957C237.017 3.64061 237.282 3.6659 237.514 3.67006C238.112 3.69037 238.613 3.64496 239.326 3.75715C238.228 3.86319 236.748 3.84911 235.148 3.71739C233.645 3.61722 232.199 3.56715 230.864 3.56906C230.424 3.5683 229.844 3.57415 229.707 3.63475C229.402 3.80601 228.605 3.77894 227.675 3.74734C226.944 3.71276 226.277 3.71664 225.727 3.75867C225.178 3.8007 224.763 3.87966 224.515 3.98908C224.453 4.09479 224.603 4.18502 225.244 4.24652L227.911 4.49318C228.304 4.46146 228.676 4.42393 229.028 4.38072C229.619 4.32333 230.35 4.30758 231.163 4.33469C231.975 4.3618 232.848 4.43104 233.713 4.53702C234.155 4.59176 234.597 4.6465 234.918 4.6205C235.199 4.59062 235.458 4.55485 235.693 4.51344C235.74 4.4857 235.759 4.45376 235.749 4.41886C235.919 4.43509 236.089 4.45619 236.254 4.48142C237.57 4.77586 238.59 4.77077 239.516 4.6944C239.767 4.67169 239.958 4.63561 240.212 4.60734C240.466 4.57908 240.555 4.54239 240.786 4.55307C242.627 4.64964 243.157 4.3271 244.708 4.34006C244.783 4.32746 244.83 4.30862 244.844 4.28529C244.858 4.26195 244.838 4.23488 244.787 4.20653C244.677 4.18095 244.551 4.15894 244.418 4.14254C244.286 4.12615 244.152 4.11588 244.029 4.1127C243.315 4.07131 242.685 4.08399 242.246 4.1486C241.935 4.175 241.605 4.19603 241.26 4.21159L239.706 3.74452C241.211 3.78733 242.634 3.78705 243.943 3.74368C244.228 3.71933 244.712 3.76129 245.114 3.76926L248.07 3.81292C248.678 3.81654 249.196 3.74332 250.043 3.914C250.043 3.914 250.603 3.94152 250.752 3.91822C250.902 3.89491 251.564 3.74997 251.959 3.65554C252.417 3.68247 253.052 3.75511 253.337 3.73075C253.836 3.67093 254.268 3.59424 254.625 3.50206L256.411 3.63366C256.409 3.75056 256.344 3.86053 256.216 3.96191C256.077 4.05967 256.082 4.17703 256.23 4.30439C256.379 4.43174 256.666 4.56547 257.07 4.69466L258.833 5.37887C259.121 5.42469 259.428 5.45553 259.712 5.46721C259.996 5.47889 260.243 5.47084 260.421 5.44415C261.18 5.36491 262.03 5.30298 262.788 5.22375C263.767 5.34496 263.515 5.54074 264.227 5.71247L266.531 5.99789C266.883 6.26239 267.241 6.51577 266.172 6.60432C265.96 6.6198 266.103 6.72116 265.909 6.76281C266.74 6.96131 267.654 7.02072 268.496 7.14298C268.828 7.23091 269.106 7.32399 269.316 7.41771C269.547 7.55883 270.014 7.70299 270.617 7.81905C271.221 7.93511 271.911 8.01377 272.54 8.03803C273.596 8.11233 274.676 8.22393 275.734 8.36783C276.095 8.41787 276.466 8.45433 276.822 8.47475C277.178 8.49517 277.511 8.49907 277.798 8.48621C278.821 8.46355 279.687 8.38563 280.34 8.25753C280.985 8.14882 281.855 8.09643 282.87 8.1051C284.607 8.32015 284.957 8.6442 286.008 8.92962L284.193 8.96162C284.127 9.07289 284.247 9.21318 283.503 9.21061C282.759 9.20805 283.136 9.31451 283.377 9.42203C283.462 9.47611 283.628 9.53175 283.847 9.57951C284.066 9.62728 284.324 9.66423 284.578 9.68414L286.123 9.82175C286.671 9.87413 287.201 9.89648 287.655 9.88639C288.109 9.87629 288.47 9.83412 288.698 9.7645C288.96 9.6984 289.321 9.65368 289.759 9.6331C290.317 9.57917 290.776 9.49897 291.119 9.39553L293.301 9.54624C293.393 9.44229 293.693 9.36941 294.149 9.33991C294.605 9.31041 295.189 9.3261 295.803 9.38433L297.273 9.47683C298.907 9.57776 299.266 9.54453 299.745 9.25147L297.784 8.72801C298.069 8.59012 298.344 8.46893 298.62 8.34774C298.131 8.17528 297.48 8.01217 296.731 7.87496C296.032 7.72752 295.314 7.58473 294.579 7.44713C293.781 7.30653 292.938 7.18426 291.948 7.02576C291.775 6.97448 291.524 6.88365 291.203 6.79613C290.882 6.71108 290.547 6.62772 290.199 6.54636C290.265 6.43509 290.324 6.33494 290.197 6.20578C290.807 6.24699 291.437 6.31907 292.031 6.41553C292.625 6.51198 293.163 6.62977 293.597 6.75828C293.67 6.78107 293.76 6.80248 293.86 6.82105C293.96 6.83963 294.068 6.85494 294.178 6.86595C295.249 6.94491 295.761 7.10987 296.285 7.31212C296.638 7.41551 297.093 7.50733 297.587 7.57483C298.534 7.69213 299.461 7.84282 300.367 7.9729C300.644 8.01625 300.932 8.05193 301.219 8.07847C302.166 8.16286 303.118 8.28086 304.029 8.42647C304.326 8.46347 304.611 8.51245 304.86 8.5693C305.11 8.62614 305.316 8.68921 305.462 8.75323C305.236 8.82337 305.115 8.91192 305.104 9.01351C305.065 9.08028 305.73 9.21638 306.044 9.31502C306.358 9.41367 305.742 9.36719 305.533 9.37711C304.674 9.3962 304.515 9.43619 305.029 9.65513C305.201 9.72398 305.315 9.79286 305.364 9.85751C305.413 9.92214 305.396 9.98117 305.315 10.0309C305.193 10.2368 304.821 10.4058 304.566 10.6071C304.962 10.7397 305.624 10.8814 305.696 11.0456C305.731 11.082 305.804 11.1206 305.91 11.1586C306.017 11.1966 306.154 11.2329 306.311 11.2651C306.727 11.3346 307.105 11.4177 307.416 11.508C307.726 11.5983 307.962 11.6933 308.104 11.7858C308.15 11.824 308.262 11.8645 308.418 11.8993C308.573 11.934 308.76 11.9604 308.942 11.9731C309.158 11.9887 309.352 11.9867 309.484 11.9674C309.615 11.9481 309.673 11.913 309.647 11.8694C309.652 11.7875 309.624 11.7021 309.561 11.6139C309.597 11.5527 309.634 11.4915 309.49 11.3902C310.138 11.4271 310.817 11.5013 311.455 11.6045C312.093 11.7077 312.664 11.836 313.108 11.9756C313.599 12.1199 314.051 12.2715 314.595 12.4404C314.483 12.6296 314.483 12.6296 315.64 12.964L321.779 13.1271L323.037 13.3486C324.21 13.5417 324.489 13.5285 325.226 13.4286L325.722 13.3348C326.764 13.4638 327.964 13.6124 328.615 13.3706C328.827 13.5282 328.965 13.5812 328.917 13.6051C328.606 13.8376 328.065 14.0349 327.317 14.1892C327.126 14.2253 326.992 14.2803 326.769 14.3125C326.052 14.4941 325.886 14.7747 326.304 15.097C326.512 15.2396 326.814 15.3856 327.2 15.5303C326.635 15.7312 325.887 15.8976 324.975 16.0252C324.201 16.1238 323.564 16.256 323.082 16.4178C322.649 16.5809 322 16.7035 321.174 16.7786C320.754 16.8105 320.448 16.8735 320.286 16.9613C320.238 17.1989 320.349 17.4533 320.616 17.7188C320.667 17.7996 320.81 17.8869 321.035 17.9738C321.26 18.0607 321.56 18.1449 321.912 18.2197C321.912 18.2197 322.082 18.2766 322.163 18.3106C322.231 18.5983 321.977 18.8519 321.418 19.0543C321.326 19.1117 321.138 19.1532 320.875 19.1742C320.612 19.1953 320.283 19.1952 319.923 19.1738C319.164 19.1395 318.455 19.1353 317.721 19.116C316.93 19.0888 316.233 19.1103 315.704 19.1782C315.175 19.2461 314.833 19.3579 314.714 19.502C314.706 19.5428 314.683 19.5818 314.644 19.6188C314.622 19.6379 314.61 19.6584 314.608 19.68L316.294 20.1516L314.387 20.3394C314.275 20.5285 315.19 20.6419 315.649 20.7824L315.365 20.8607C315 20.9051 314.508 20.8202 314.063 20.7711L313.621 20.7163L313.568 20.8053C313.293 20.9265 312.29 20.7903 311.898 20.8791C311.507 20.968 311.786 21.0683 312.373 21.1649C312.78 21.2366 313.218 21.2938 313.653 21.3322C314.088 21.3706 314.509 21.3891 314.885 21.3864C315.109 21.3769 315.294 21.3552 315.431 21.3226C316.222 21.184 317.097 21.0648 318.048 20.966C318.777 20.8772 319.69 20.8395 320.723 20.8554C321.026 20.8487 321.391 20.8697 321.755 20.9147C322.119 20.9598 322.458 21.026 322.712 21.1017L323.247 21.1142C323.247 21.1142 323.539 21.1922 323.498 21.205C323.294 21.4362 323.531 21.7189 324.172 22.0112L323.614 22.0376C322.817 22.0105 323.323 22.1866 323.203 22.2734C322.637 22.257 321.901 22.1837 321.633 22.2938L321.231 22.2858L321.388 22.3054L321.579 22.2693L322.329 22.4338C321.974 22.4615 321.716 22.4953 321.403 22.5102C321.229 22.5231 321.091 22.546 320.997 22.5774C320.903 22.6088 320.854 22.6482 320.854 22.693C320.855 22.762 320.761 22.8201 320.582 22.8617C320.403 22.9034 320.145 22.9271 319.832 22.9307C319.458 22.9322 319.244 23.0073 319.025 23.0339L319.977 23.4862C319.977 23.4862 319.503 23.4275 319.761 23.5072L319.794 23.4516L320.371 23.5648C320.787 23.6641 321.077 23.6881 321.323 23.617C321.568 23.5459 321.512 23.6405 321.63 23.6133C321.587 23.6856 321.32 23.7361 321.091 23.7794C320.826 23.8134 320.527 23.8385 320.2 23.8542C320.79 24.1722 320.819 24.1817 319.956 24.2659C319.092 24.35 319.39 24.4765 318.668 24.4945C317.945 24.5126 318.767 24.7278 319.25 24.7697C319.609 24.7973 319.974 24.8403 320.321 24.8957C320.669 24.9511 320.99 25.0176 321.263 25.0906L321.118 25.3354C320.905 25.3152 320.692 25.2888 320.486 25.2572C319.786 25.1228 319.15 24.9962 318.527 25.0744L318.824 25.2604L316.651 25.1525C316.707 25.2919 317.039 25.4507 317.575 25.5954C317.494 25.6748 317.444 25.7585 317.426 25.8457C317.39 25.9069 317.176 25.8684 317.036 25.875C316.539 25.8853 316.13 25.9267 315.847 25.9958C315.564 26.0649 315.415 26.1594 315.412 26.2711C315.356 26.3657 316.121 26.5619 316.599 26.5555C317.793 26.5743 319.085 26.6471 320.403 26.7698C321.207 26.7857 321.32 26.537 322.643 26.7068C322.669 26.8216 322.5 26.9146 322.16 26.9717C321.821 27.0288 321.33 27.0468 320.761 27.0232C321.085 27.2782 322.875 27.3447 322.954 27.6113C322.508 27.5925 322.032 27.5481 321.571 27.4827C321.111 27.4173 320.682 27.3331 320.329 27.2383C320.252 27.215 320.157 27.1935 320.05 27.1757C319.944 27.158 319.83 27.1447 319.72 27.137C319.609 27.1293 319.506 27.1274 319.419 27.1316C319.332 27.1358 319.264 27.1459 319.222 27.161C319.47 27.2574 319.743 27.3688 320.054 27.473C320.365 27.5773 320.44 27.6224 320.664 27.6442C322.337 27.8514 323.133 28.2246 324.58 28.4696C324.959 28.5165 325.006 28.6657 324.678 28.6488C324.365 28.632 324.081 28.6342 323.86 28.6552C323.638 28.6762 323.486 28.7153 323.421 28.7679C323.178 28.8293 322.876 28.8782 322.521 28.9133C324.006 29.2963 325.776 29.6347 327.666 29.8968C328.023 29.9486 328.397 29.9801 328.73 29.9869C329.785 29.9873 330.904 30.0177 332.066 30.0774C332.477 30.0938 332.858 30.0922 333.186 30.073C334.264 30.0273 335.12 30.1273 335.902 30.4092L337.195 30.8561C337.153 30.9285 336.935 31.0091 336.768 31.1197L337.779 31.3584L345.492 30.8087L347.04 31.3409L349.261 31.3113C349.431 31.3267 349.602 31.3479 349.766 31.3739C350.215 31.531 350.566 31.682 351.053 31.8319C351.54 31.9819 352.411 32.0001 353.018 32.1768C353.625 32.3534 354.232 32.3571 354.983 32.462C355.054 32.5988 354.981 32.7219 354.769 32.8237C354.7 32.9405 354.318 33.0127 354.252 33.1239C354.26 33.2364 354.118 33.3319 353.84 33.4017C353.562 33.4716 353.156 33.5136 352.66 33.5239C351.27 33.7633 349.594 33.9338 347.683 34.0303C347.515 34.0373 347.376 34.0534 347.274 34.0778C347.172 34.1022 347.11 34.1342 347.091 34.1719C347.094 34.281 346.966 34.3754 346.718 34.4479C346.47 34.5205 346.107 34.5695 345.656 34.5914C345.536 34.5958 345.446 34.6095 345.396 34.6308C345.225 34.6445 345.1 34.6708 345.034 34.7072C344.968 34.7435 344.963 34.7886 345.019 34.8381C345.074 34.8877 345.19 34.94 345.353 34.99C345.516 35.04 345.722 35.086 345.951 35.1236C346.283 35.1841 346.622 35.242 346.966 35.2971C346.947 35.3305 346.605 35.3359 346.654 35.366C346.79 35.462 346.821 35.5519 346.746 35.6286C346.671 35.7054 346.492 35.7669 346.223 35.8082L348.066 36.5859C349.185 36.6936 350.283 36.8763 351.151 37.0993C351.152 37.1358 351.102 37.1665 351.006 37.1881C350.91 37.2097 350.771 37.2216 350.603 37.2226C350.153 37.2385 349.728 37.2695 349.243 37.2871C348.947 37.3002 348.7 37.3292 348.518 37.3722C348.335 37.4152 348.221 37.4714 348.18 37.5376L349.262 37.8269C348.916 37.8974 348.658 37.9313 348.429 37.9746C348.559 38.0655 348.782 38.1595 349.082 38.2494C349.381 38.3393 349.748 38.4226 350.155 38.4929C350.265 38.5074 350.376 38.518 350.483 38.5241C350.59 38.5301 350.69 38.5316 350.778 38.5283C351.617 38.429 352.597 38.6042 353.549 38.7699C354.502 38.9357 355.019 39.0355 355.722 39.1644L357.067 39.1817C357.407 39.2427 357.711 39.3145 357.954 39.3912C358.197 39.468 358.372 39.5476 358.465 39.6237C358.393 39.7461 357.755 39.679 357.375 39.6916C356.473 39.7678 355.287 39.7515 354.013 39.6455C353.698 39.6064 353.374 39.638 353.067 39.6418C352.404 39.657 351.767 39.6818 351.159 39.716C350.758 39.7479 350.384 39.7873 350.038 39.834C349.946 39.9898 351.4 40.1101 350.575 40.1871C350.859 40.2223 350.965 40.2713 351.111 40.2536C352.047 40.3547 352.969 40.4048 353.771 40.3978C355.309 40.3763 357.055 40.4473 358.867 40.605C360.822 40.7683 362.698 40.8368 364.339 40.805C364.965 40.8032 365.663 40.8366 366.383 40.9028C367.232 40.9945 368.075 41.0521 368.858 41.072C369.117 41.0727 369.406 41.0883 369.7 41.1176C369.995 41.1468 370.288 41.1889 370.554 41.2403C370.531 41.2792 370.277 41.3075 370.334 41.3265C371.144 41.6179 371.472 41.9213 372.719 42.2191C373.571 42.3246 374.55 42.4459 375.107 42.3059C375.665 42.1659 375.465 42.0456 374.356 41.6873C374.596 41.6821 374.886 41.6988 375.175 41.7346C375.463 41.7703 375.732 41.8227 375.934 41.8828L376.894 42.1509L377.758 42.4073C377.682 42.5352 377.623 42.6354 377.56 42.7411C377.461 42.8534 377.57 42.99 377.871 43.1319C378.052 43.2093 378.211 43.2868 378.344 43.3636C378.884 43.6707 379.041 43.961 378.796 44.2019C378.326 44.5483 377.672 44.867 376.842 45.1543C375.965 45.4338 375.484 45.7864 374.762 46.0911C374.393 46.2298 373.945 46.3541 373.423 46.4628C372.433 46.7044 371.348 46.9343 370.354 47.1815C369.36 47.4287 368.238 47.6062 367.135 47.8099C365.492 48.0517 363.716 48.2606 361.817 48.4352C360.642 48.5883 359.435 48.7375 358.348 48.9134C357.064 49.1117 355.556 49.2541 353.861 49.337C352.364 49.4363 351.026 49.5832 349.874 49.7748C349.753 49.7956 349.658 49.8219 349.59 49.8532C349.383 50.0486 348.801 50.1863 347.935 50.2453C347.987 50.3025 348.055 50.3607 348.136 50.4196C348.257 50.4898 348.282 50.5554 348.208 50.6081C348.135 50.6608 347.966 50.698 347.724 50.7149C347.031 50.7633 346.455 50.8455 346.021 50.9579C345.862 50.9861 345.763 51.0271 345.733 51.0775C345.704 51.1279 345.743 51.1861 345.85 51.2472C345.944 51.31 345.951 51.3679 345.87 51.4132C345.788 51.4585 345.623 51.4892 345.394 51.5013C344.807 51.5608 344.179 51.6086 343.513 51.6446C342.096 51.7238 340.449 51.7229 338.669 51.6418C338.48 51.6183 338.289 51.6544 338.068 51.627C336.809 51.5362 335.641 51.5221 334.703 51.5865C333.604 51.6116 332.455 51.6067 331.295 51.6184C329.621 51.6105 328.076 51.6583 326.704 51.7604C325.136 51.6617 324.255 51.8333 322.931 51.8366C321.709 51.8542 320.551 51.8965 319.468 51.963C317.721 52.0512 315.981 52.1283 314.259 52.2316C312.644 52.2809 311.157 52.3749 309.823 52.5123C309.312 52.5744 308.387 52.4777 308.038 52.6077C307.69 52.7378 306.988 52.7224 306.42 52.7656L304.628 52.8722C304.32 52.8975 303.982 52.9136 303.617 52.9201C301.952 52.9288 300.798 53.1025 299.252 53.1379L299.094 53.1184C296.349 53.3765 293.208 53.5182 289.763 53.5393C287.751 53.6185 285.55 53.6147 283.415 53.6727C282.905 53.7888 281.703 53.6458 281.064 53.7518C280.425 53.8578 279.381 53.7883 278.558 53.8057C277.734 53.8231 276.929 53.8667 276.049 53.8652C275.284 53.8657 274.639 53.913 274.171 54.0029C273.103 54.1515 271.802 54.2388 270.325 54.261C268.37 54.2997 266.522 54.3873 264.534 54.368C264.563 54.4763 264.441 54.5684 264.181 54.6349C263.921 54.7014 263.533 54.7398 263.056 54.7463C260.931 54.7876 259.003 54.8953 256.849 54.9271L256.273 54.9274L249.831 54.9896C248.096 55.0016 246.424 55.0214 244.654 55.035C243.991 54.9529 243.975 55.0943 243.516 55.0673C243.388 54.9977 243.237 54.967 243.011 55.0048L242.961 55.0882L235.61 55.1989C232.732 55.2799 229.704 55.3042 226.553 55.2716C225.805 55.2798 225.108 55.3074 224.471 55.3541C223.88 55.3711 223.265 55.3787 222.628 55.3766C221.766 55.3556 220.924 55.345 220.105 55.3449C217.951 55.3767 215.691 55.3595 213.332 55.3362C210.974 55.3128 209.187 55.3543 207.088 55.3511C205.667 55.3483 204.252 55.3342 202.78 55.3013C202.078 55.2859 201.212 55.2026 200.485 55.1722C199.757 55.1419 199.52 55.1423 199.424 55.1901C199.107 55.3241 198.311 55.2375 197.675 55.2244C196.434 55.2021 196.258 55.1564 195.921 54.8101L197.443 54.7C197.817 54.6645 198.286 54.6583 198.806 54.6819C199.326 54.7055 199.88 54.7583 200.413 54.835C200.623 54.8679 200.843 54.8938 201.059 54.9114C201.276 54.929 201.485 54.9378 201.674 54.9374C203.21 54.9186 204.725 54.8792 206.201 54.8471L206.417 54.826L206.43 54.5172C206.235 54.4869 206.033 54.4618 205.831 54.4429L198.426 54.2425C196.727 54.1933 194.963 54.0823 193.296 54.037C191.628 53.9917 190.729 53.964 189.436 53.9172C188.89 53.8906 188.333 53.8556 187.769 53.8124C187.802 53.7827 187.821 53.751 187.826 53.7178C187.855 53.6678 187.895 53.601 187.655 53.5475C187.394 53.4719 187.045 53.4073 186.678 53.3667C186.333 53.3399 185.999 53.3247 185.688 53.3217C184.186 53.2959 182.471 53.1327 180.908 52.8671L180.363 53.0444C178.016 52.9448 175.634 52.8469 173.182 52.7522C172.691 52.7264 172.176 52.6769 171.675 52.6074C171.139 52.5409 170.645 52.4022 170.08 52.3262C169.522 52.2716 168.967 52.2289 168.427 52.1991C168.573 52.1535 168.766 52.117 168.999 52.0909C169.229 52.0817 169.396 52.0532 169.477 52.0095C169.558 51.9658 169.548 51.9092 169.448 51.8479C169.274 51.7426 169.197 51.6435 169.577 51.6309C169.928 51.6069 170.18 51.5549 170.302 51.4811C170.423 51.4074 170.41 51.3148 170.264 51.2144C170.2 51.1557 170.155 51.0982 170.129 51.0424L169.971 51.0228C169.451 50.815 168.411 50.74 167.664 50.5699C167.312 50.5206 166.947 50.4922 166.628 50.4893C165.802 50.4527 164.998 50.4368 164.145 50.3907C163.737 50.3696 163.31 50.331 162.89 50.2772C162.29 50.2029 162.227 50.1951 161.879 49.925C162.42 49.9297 162.849 49.8894 163.093 49.8108C163.337 49.7322 163.382 49.6202 163.219 49.4938C162.773 49.2175 162.301 48.9263 160.283 48.73C160.941 48.7203 161.575 48.7011 162.181 48.6725C162.357 48.6663 162.489 48.646 162.559 48.6143C162.629 48.5826 162.634 48.541 162.573 48.4951C162.511 48.4492 162.387 48.4012 162.216 48.3574C162.046 48.3137 161.837 48.2763 161.618 48.2504C160.552 48.0941 159.441 47.9895 158.408 47.9484C157.538 47.9302 156.752 47.9404 155.736 47.9399L154.536 47.7913C154.556 47.7579 154.38 47.7122 154.424 47.6939C154.729 47.5226 155.066 47.3553 155.412 47.1712C154.859 47.0718 154.38 46.9519 154.029 46.825C153.679 46.6982 153.472 46.5696 153.431 46.4541C153.401 46.4192 153.409 46.3875 153.454 46.361C153.499 46.3346 153.58 46.3142 153.691 46.3012C154.007 46.2788 154.251 46.2361 154.403 46.1764C154.556 46.1166 154.614 46.0414 154.573 45.9565L153.64 45.6439C150.831 45.4209 148.073 45.2615 145.416 45.1688L143.017 45.0987C142.728 45.0151 142.818 44.9784 143.09 44.9763C143.362 44.9742 144.128 44.9973 144.663 45.0098C145.125 45.0262 145.535 45.0155 145.854 44.9786C146.172 44.9417 146.389 44.8799 146.482 44.7992L145.677 44.4427C145.716 44.3759 145.772 44.2813 146.209 44.2876C146.508 44.2799 146.727 44.2463 146.833 44.1922C146.939 44.1382 146.925 44.0668 146.792 43.9896C146.772 43.9338 146.802 43.883 146.881 43.8394C147.527 43.8358 148.17 43.8378 148.756 43.8208C149.029 43.8151 149.26 43.7945 149.432 43.7602C149.605 43.7259 149.715 43.6788 149.755 43.622C149.776 43.5666 149.725 43.5035 149.605 43.4378C149.485 43.3722 149.3 43.3057 149.064 43.2438C148.146 43.1673 147.305 43.1663 146.728 43.2411C146.522 43.2997 146.191 43.3317 145.779 43.3329C145.367 43.3341 144.893 43.3044 144.419 43.2478C143.877 43.1825 143.336 43.1538 142.894 43.1669C142.451 43.1799 142.136 43.2339 142.005 43.3191C141.449 43.286 140.955 43.2607 140.469 43.2243C139.894 43.1784 139.352 43.1649 138.899 43.1852C138.175 43.1995 137.394 43.1911 136.576 43.1602C134.215 43.0829 131.852 43.0111 129.567 42.9789C128.962 42.9697 128.439 42.9945 127.841 42.9742C127.243 42.9539 126.77 43.0088 126.022 42.8982C125.88 42.881 125.737 42.87 125.604 42.866C125.471 42.862 125.352 42.8651 125.257 42.8751C123.944 42.9625 122.404 42.9748 120.728 42.9114C118.433 42.8959 116.053 42.8519 113.755 42.8419C113.08 42.8505 112.443 42.8735 111.85 42.9106C111.399 42.9331 110.926 42.9483 110.434 42.9562C110.057 42.9632 109.696 42.9425 109.76 43.0638C109.823 43.1852 109.259 43.1092 108.933 43.0868C107.814 43.028 106.671 42.9483 105.516 42.8487C104.378 42.7405 103.262 42.6775 102.237 42.6636C101.496 42.6554 100.732 42.6863 99.7801 42.5205C99.8164 42.4593 99.8526 42.3981 100.06 42.3342C99.2833 42.1584 98.3972 42.0071 97.475 41.8929C96.5527 41.7787 95.6207 41.7048 94.7562 41.6774L93.564 41.3446C93.2705 41.3055 92.9708 41.277 92.6832 41.2609C92.3957 41.2448 92.1262 41.2414 91.8912 41.2509C91.7097 41.2557 91.4884 41.2433 91.268 41.216C91.0476 41.1887 90.843 41.1483 90.6916 41.1023C90.4652 41.0437 90.1887 40.9931 89.8967 40.957C89.6046 40.9208 89.3101 40.9006 89.0499 40.899C88.2308 40.8628 87.3564 40.7792 86.5163 40.6568C86.2983 40.5851 86.1617 40.511 86.1233 40.4436C86.085 40.3762 86.1466 40.3186 86.3005 40.2778C86.5487 40.2056 86.688 40.1138 86.7101 40.0077C86.7322 39.9016 86.6366 39.7836 86.429 39.6606C86.3227 39.5852 86.2872 39.5138 86.3246 39.4506C86.362 39.3875 86.4716 39.3341 86.6466 39.2935C87.3001 39.1057 87.1253 39.0004 86.0561 38.6888C85.8825 38.6369 85.6731 38.5883 85.4413 38.5462C85.2096 38.5042 84.9605 38.4695 84.7099 38.4444C84.1219 38.3937 83.5419 38.3559 82.9806 38.3318C82.6649 38.2927 82.3412 38.3243 81.9774 38.3091C80.1586 38.2331 79.8924 38.1105 79.3034 37.8465L78.8741 37.656C78.0779 37.5016 77.2072 37.3735 76.3246 37.2807C75.442 37.1879 74.5696 37.1328 73.7702 37.1194C73.4524 37.1184 73.0871 37.092 72.7302 37.0443C71.5688 36.8985 70.3927 36.7977 69.2797 36.7484C68.5861 36.7206 67.8385 36.6488 67.1266 36.5416C66.4147 36.4343 65.7687 36.2962 65.2664 36.1438C64.8152 36.0065 64.2249 35.8833 63.5777 35.7913C62.82 35.6975 62.7498 35.5873 63.1729 35.5023C63.596 35.4174 64.3047 35.3081 64.9337 35.2188C65.1526 35.1884 65.2882 35.139 65.3254 35.0762C65.3627 35.0133 65.3001 34.9394 65.1447 34.8627C65.0449 34.7314 65.0276 34.6069 65.0932 34.492C65.1283 34.4443 65.1041 34.3896 65.0222 34.3316C64.9404 34.2735 64.8028 34.2136 64.6187 34.1557C64.4346 34.0978 64.2084 34.0433 63.9552 33.996C63.702 33.9486 63.4277 33.9095 63.1509 33.8812C61.9828 33.7365 60.8463 33.5958 59.6551 33.49C59.1559 33.4402 58.6572 33.3784 58.1713 33.3063C57.1766 33.1278 56.1125 32.9797 55.0407 32.8707C54.532 32.822 54.0347 32.7368 53.6563 32.6336C52.463 32.3555 51.3635 32.0631 50.3776 31.7617C50.1399 31.6682 49.8291 31.577 49.4643 31.4938C49.0996 31.4106 48.6889 31.3372 48.2581 31.2783C47.9109 31.2352 47.6282 31.1405 47.3605 31.0775C47.166 30.9316 47.1452 30.7966 47.3001 30.6852C47.4551 30.5738 47.7806 30.4897 48.2462 30.4407C48.6877 30.3819 49.1009 30.3137 49.4825 30.2415C49.9426 30.1831 50.4895 30.1481 51.103 30.1376C51.8295 30.1063 52.3668 30.0168 52.6447 29.8807C50.6557 29.6343 48.7643 29.2806 47.021 29.3633L45.6964 29.1395C45.7491 29.0505 45.7953 28.9726 45.8381 28.9003C46.1532 28.7686 46.2516 28.6026 46.125 28.4163C46.0206 28.3261 46.0301 28.2441 46.1523 28.1785C46.2745 28.1129 46.5051 28.066 46.8209 28.0426C48.6915 27.8025 50.8546 27.6404 52.6088 27.368C53.1588 27.3169 53.8027 27.2936 54.5133 27.2993C55.2008 27.2829 55.172 27.1599 54.3809 27.0082C53.9368 26.9289 53.4842 26.8529 53.0247 26.7805C50.9986 26.7685 50.1732 27.1321 47.8611 27.0308L46.7895 26.5517C46.4997 26.5443 46.2184 26.5414 45.9475 26.543L42.0706 26.7377C41.7477 26.7474 41.4963 26.7807 41.3451 26.8338C41.1939 26.8868 41.1488 26.9575 41.215 27.0378C41.2412 27.136 41.1878 27.2261 41.0567 27.3048C40.9722 27.3599 41.0263 27.4332 41.2071 27.5086C41.6147 27.6785 41.0917 27.7033 40.7614 27.746C40.677 27.7502 40.5797 27.7497 40.475 27.7447C40.3704 27.7397 40.2606 27.7301 40.1519 27.7167C40.0432 27.7032 39.9379 27.6861 39.842 27.6663C39.7462 27.6465 39.6616 27.6244 39.5934 27.6013C39.0114 27.4397 38.5024 27.2691 37.9304 27.0908C38.3365 26.9201 37.8587 26.64 38.4924 26.4856C38.5633 26.4547 38.5916 26.4172 38.5757 26.3751C38.5599 26.3331 38.5 26.2875 38.4 26.2412C38.1419 26.1217 38.019 26.0051 38.0437 25.9033C38.0683 25.8015 38.2396 25.7181 38.5403 25.6614L38.5766 25.6002C37.7835 25.3945 37.9936 25.2115 37.6822 24.9938L36.9193 24.8515C35.0213 24.5089 35.018 24.5145 33.3839 24.5271C33.0545 24.3967 33.473 24.3769 33.7868 24.362L36.4151 24.2158C38.1334 24.118 39.9018 24.0504 41.8214 24.0134C43.741 23.9765 45.8811 23.8534 47.8652 23.7647C47.9655 23.7578 48.0423 23.7442 48.089 23.7251C48.1357 23.7059 48.151 23.6818 48.1338 23.6546C48.0549 23.6252 47.9516 23.5969 47.8317 23.5717C47.7117 23.5465 47.5781 23.5251 47.4406 23.509C46.8092 23.4308 46.1613 23.3805 45.4885 23.315L44.2341 23.2015L43.8482 23.0522C43.5971 22.9613 43.4255 22.8505 43.0914 22.7852C42.8161 22.7366 42.5172 22.6996 42.2259 22.6782C41.9346 22.6569 41.6616 22.6519 41.4352 22.6637C40.8076 22.6935 40.2398 22.7366 39.6405 22.7759C39.0411 22.8151 38.7108 22.8578 38.1911 22.877C37.1352 22.8858 36.1147 22.9089 35.1341 22.9463C34.3082 23.0348 33.5442 23.1397 32.8471 23.2603C32.4122 23.3079 32.0055 23.365 31.2629 23.3029C30.9106 23.2466 30.6067 23.1726 30.4051 23.0941C30.2035 23.0156 30.1173 22.9376 30.1617 22.8739C30.2015 22.824 30.3143 22.7846 30.4894 22.7592C30.6645 22.7339 30.8961 22.7235 31.1624 22.7291C31.9078 22.72 32.5971 22.6891 33.2164 22.6371C34.0783 22.543 35.1276 22.5025 36.303 22.5178C36.7016 22.5313 36.9688 22.4808 37.3175 22.4643C37.6662 22.4477 37.9616 22.4067 38.3503 22.4369C39.558 22.5148 40.137 22.3955 40.8607 22.3179C41.1057 22.2835 41.2575 22.2279 41.2994 22.1572C41.3413 22.0865 41.2717 22.0035 41.0982 21.9173C40.7641 21.7456 40.3555 21.5729 39.8787 21.402C39.6333 21.318 39.3189 21.2382 38.9601 21.1689C38.6014 21.0996 38.208 21.0426 37.811 21.0026C37.5733 20.8974 37.4466 20.794 37.4421 20.7017C37.4377 20.6094 37.5557 20.5311 37.7855 20.4739C38.3712 20.3434 38.8904 20.2106 40.2026 20.2835C40.8196 20.3114 41.4002 20.3167 41.9215 20.2994C43.0776 20.2755 44.4112 20.3277 45.7966 20.4508C46.155 20.4824 46.5073 20.5039 46.8431 20.5148C49.2381 20.5904 51.5201 20.6282 53.8086 20.6549C55.021 20.6677 56.2432 20.6638 57.5089 20.7011C60.4769 20.782 63.1786 20.7404 66.0434 20.7668C67.5438 20.7803 68.8868 20.7258 70.0019 20.6061C70.219 20.566 70.4055 20.5191 70.5592 20.4661C69.8203 20.327 69.0086 20.2169 68.202 20.1462C67.3953 20.0756 66.6207 20.0469 65.9524 20.0628C65.585 20.1017 65.1101 20.1088 64.5807 20.0833C64.0513 20.0578 63.4882 20.0007 62.9542 19.9184L64.5068 19.8718C65.5363 19.85 66.5908 19.8432 67.5921 19.812C69.1828 19.7582 70.6571 19.672 72.3043 19.6372C73.6342 19.6051 74.8243 19.5232 75.8372 19.3939C76.569 19.2996 77.4047 19.2328 78.3274 19.1947C78.9833 19.1744 78.9833 19.1744 79.4026 18.9815C79.07 18.8567 78.6398 18.8393 78.2346 18.8368C75.8052 18.7583 73.4932 18.7446 71.3458 18.7958C70.2623 18.8004 69.3011 18.8533 68.5084 18.952C68.3142 18.9937 67.8176 18.974 67.419 18.9604C66.1693 18.9398 64.975 18.9458 63.8502 18.9783C62.2952 19.0324 60.5633 19.0196 58.7218 18.9403C58.3726 18.8433 58.7745 18.8513 58.7943 18.8179C60.2206 18.7557 61.6186 18.684 63.0732 18.6312C63.4708 18.6124 63.8958 18.6031 64.3435 18.6034C66.0147 18.6361 67.4074 18.5455 68.3264 18.3442C68.3725 18.2663 68.9771 18.2755 69.2442 18.225C69.3756 18.1813 69.4632 18.1298 69.5042 18.0721C69.115 17.9283 68.6749 17.9276 68.3362 17.9274C67.3531 17.9435 66.4073 17.9739 65.5035 18.0185C64.6633 18.061 63.7332 18.0723 62.7385 18.0523C62.0044 18.033 61.3768 18.0628 60.6361 18.0547C60.2343 18.0375 59.8184 18.0101 59.3968 17.9728C59.8662 17.8726 60.5042 17.811 61.266 17.7923C61.8437 17.7324 62.566 17.7144 62.6583 17.5586C62.3855 17.4472 62.0816 17.4454 61.8375 17.457C61.3294 17.4565 60.8387 17.4636 60.3679 17.478C59.3695 17.5097 58.2886 17.5101 57.1478 17.4793C56.547 17.4678 55.977 17.4712 55.4473 17.4896C54.2467 17.5141 53.0961 17.5687 51.9968 17.5938C49.745 17.6195 47.6912 17.7115 45.5275 17.76C45.046 17.772 44.6143 17.8141 43.9796 17.7415C43.3449 17.6688 43.3167 17.6594 43.2417 17.6143C43.0641 17.539 43.0103 17.466 43.0914 17.4105C43.2173 17.3587 43.4626 17.3298 43.7835 17.329C45.7177 17.2465 47.5523 17.1306 49.2757 16.9821C50.0341 16.9523 50.6986 16.8916 51.2461 16.8021C51.6803 16.7404 52.1953 16.6996 52.775 16.6809C53.6182 16.6363 54.4972 16.6037 55.4085 16.5831C55.8325 16.572 56.193 16.539 56.4689 16.486C56.7447 16.4329 56.9303 16.361 57.0147 16.2744L55.8975 15.9867C55.722 15.9733 55.5479 15.9617 55.3759 15.952L46.1034 16.1592L45.1851 16.1649C44.1787 16.1477 43.9327 16.1053 42.978 15.7721C45.1568 15.6937 46.8695 15.4652 47.9456 15.1094C47.687 15.0711 47.4219 15.0382 47.1564 15.0116C45.4152 14.9274 43.7692 14.9051 42.2819 14.9454C41.3984 14.9494 40.49 14.9384 39.5783 14.933C39.8449 14.769 40.8664 14.8178 41.5322 14.7809C43.123 14.723 44.5297 14.6034 45.7074 14.4261C46.1134 14.3569 46.6214 14.3127 47.208 14.2954C47.7951 14.2895 48.2855 14.2476 48.6366 14.1735C48.9877 14.0993 49.1887 13.9952 49.2222 13.87C49.2775 13.7567 49.3967 13.6515 49.578 13.5558C49.2573 13.42 48.7481 13.29 48.1459 13.1901C47.5437 13.0903 46.89 13.0274 46.3074 13.0134C45.0636 12.9575 43.7735 12.8659 42.47 12.7411C41.8207 12.6782 41.184 12.6421 40.6013 12.6351C40.0874 12.6297 39.5032 12.5843 38.938 12.5056C38.3728 12.427 37.8574 12.3195 37.4706 12.1996C36.9485 12.0513 36.4612 11.9014 35.974 11.7515C35.4868 11.6015 34.9214 11.4121 34.3526 11.2282C33.8511 11.1994 33.3628 11.1809 32.8943 11.1729C32.5298 11.1797 32.1044 11.1596 31.6684 11.1152C31.2324 11.0707 30.8039 11.0036 30.4336 10.9219C30.6508 10.8414 30.8964 10.7702 31.155 10.6769C30.8 10.5536 30.5426 10.4278 30.3984 10.3073C30.2543 10.1868 30.2265 10.074 30.3167 9.97583C30.3694 9.88681 29.9835 9.73749 29.8501 9.61945C29.6784 9.51769 29.6462 9.42273 29.7576 9.347C29.869 9.27128 30.1188 9.21834 30.4744 9.19513C30.9154 9.15228 31.2743 9.08774 31.5364 9.00418C31.6231 8.98248 31.6672 8.95277 31.6648 8.91776C31.6623 8.88275 31.6133 8.84357 31.5223 8.80378C31.4312 8.76399 31.3011 8.72487 31.1437 8.69C30.9863 8.65514 30.8067 8.62563 30.6213 8.60418C30.0534 8.54338 29.4894 8.50397 28.9617 8.48822C28.0527 8.45924 27.1824 8.44103 26.3509 8.4336C25.4313 8.42242 24.4083 8.3534 23.3857 8.23356C22.4701 8.12017 21.6493 8.01851 21.2016 7.80182C20.754 7.58513 20.0382 7.59204 19.4878 7.4343C19.797 7.2921 20.3465 7.1933 21.0809 7.14787C21.5615 7.13165 21.9626 7.08909 22.2586 7.02291C22.5546 6.95673 22.7389 6.86839 22.7997 6.76356L21.1288 6.32371C19.7944 6.11663 19.0561 6.27601 17.6142 6.19298L19.0998 6.03061C19.1297 6.01456 19.1409 5.99572 19.1328 5.97497C18.9886 5.64657 18.7591 5.57634 17.2404 5.39422L16.3881 5.28866L15.039 5.16337C14.8229 5.09607 14.6735 5.02589 14.6056 4.95984C14.5377 4.89379 14.5537 4.83419 14.6521 4.787C14.8498 4.70765 14.9098 4.60624 14.8269 4.49213C14.696 4.41654 14.6852 4.34685 14.7963 4.29516C14.9074 4.24347 15.1334 4.21304 15.4351 4.20915C15.6759 4.20314 15.6938 4.11578 15.8248 4.06631C15.9549 3.99812 16.1777 3.9458 16.4778 3.91291C16.778 3.88001 17.1485 3.8673 17.5643 3.87566C18.79 3.88248 19.9415 3.85689 20.9983 3.79933L20.8088 3.77587C21.9103 3.8264 22.9401 3.83253 23.848 3.79396C24.7578 3.7454 25.9255 3.77655 26.8919 3.74694C27.6786 3.75373 28.2776 3.68653 28.5617 3.55961C28.8368 3.43842 29.8367 3.4667 30.6024 3.48987C31.0559 3.50485 31.4943 3.5112 31.9128 3.50884C32.4745 3.48141 33.1768 3.50727 33.9026 3.5821C34.1204 3.6051 34.3349 3.61728 34.5256 3.61745C36.3707 3.6489 38.2125 3.68592 40.0327 3.70234C40.4529 3.69288 40.9455 3.71453 41.4529 3.76476C41.6661 3.78656 41.8737 3.79559 42.0476 3.79064C44.9237 3.74076 48.1692 3.86802 50.9888 3.79919C51.3305 3.78294 51.7088 3.77956 52.1131 3.78914C53.0214 3.82957 53.8101 3.80355 54.3596 3.71504C54.6561 3.66796 55.0362 3.64202 55.4757 3.63887C55.9151 3.63572 56.4043 3.65542 56.912 3.69674C57.7569 3.75144 58.5378 3.75737 59.1723 3.71391C60.4093 3.67375 61.7102 3.65724 63.0648 3.6645C63.4798 3.67153 63.8446 3.65592 64.131 3.6189C64.4174 3.58188 64.6176 3.52442 64.7162 3.451C64.3835 3.32619 64.0198 3.311 63.6744 3.32197C62.3358 3.29353 61.0004 3.25953 59.6867 3.24612C58.5109 3.20784 57.3827 3.19614 56.3187 3.21119C55.7904 3.22816 55.1311 3.18945 54.4848 3.1035C53.6927 2.99464 52.8769 2.94055 52.2023 2.95219C51.7022 2.95507 51.1743 2.9457 50.6262 2.92419C50.2754 2.89826 49.9159 2.85373 49.5844 2.79517C49.4529 2.76973 49.3098 2.74834 49.1641 2.73238C49.0185 2.71641 48.8737 2.70622 48.7389 2.70244C48.604 2.69866 48.4819 2.70137 48.3808 2.71042C48.2796 2.71947 48.2014 2.73466 48.1511 2.755C47.6437 2.92506 46.509 2.83827 45.5374 2.81946C44.0814 2.53164 42.9978 2.70199 41.637 2.53942C41.5294 2.52865 41.4233 2.52212 41.3254 2.52025C41.2274 2.51839 41.1396 2.52123 41.0673 2.52858C38.4338 2.62643 35.3645 2.54489 32.5996 2.57868C32.2947 2.58362 31.9408 2.56668 31.5781 2.5298C29.2078 2.28565 26.9289 2.21634 25.1869 2.33542C24.9749 2.34614 24.7338 2.3466 24.4745 2.33676C23.2834 2.23973 22.1444 2.20105 21.1526 2.22394C19.5981 2.21654 18.1036 2.22254 16.5241 2.20011C15.4354 2.16819 14.4803 2.20229 13.7545 2.299C13.7314 2.33794 13.2479 2.29598 12.8776 2.29191C12.6646 2.19387 12.4799 2.10531 12.2603 2.01839C12.064 1.91086 11.77 1.80205 11.3982 1.69933C11.0264 1.59662 10.5856 1.5024 10.1055 1.42306C9.28469 1.3214 9.2026 1.17387 9.77696 1.1196C11.2574 0.940035 13.1189 0.866542 15.2248 0.904512C16.9851 0.907546 18.7771 0.914498 20.5624 0.93257C21.6038 0.948075 22.7015 0.982511 23.7146 0.988541C24.0564 1.00179 24.4076 1.02132 24.7644 1.04691C25.2023 1.08401 25.6274 1.10423 26.0169 1.10647C27.2675 1.07522 28.6632 1.10245 30.1374 1.18684C30.6774 1.20524 31.1959 1.21144 31.6852 1.20535C32.8429 1.18244 34.0979 1.1993 35.417 1.25548C36.2369 1.28715 37.0319 1.30372 37.7937 1.30499C38.0628 1.30845 38.2819 1.28184 38.541 1.302C40.8221 1.51285 42.4373 1.36055 44.4902 1.44163C45.488 1.46424 46.4413 1.4643 47.3367 1.44182C49.084 1.44291 50.8801 1.46603 52.7176 1.51108C55.1475 1.5851 57.3993 1.55941 59.7194 1.58997C60.1775 1.59639 60.6198 1.5953 61.043 1.58669C63.102 1.52981 65.3384 1.54188 67.6976 1.62258C68.2333 1.63424 68.7144 1.61999 69.1109 1.58071C69.5073 1.54144 69.8106 1.478 70.0016 1.39435C70.0824 1.33695 70.0301 1.26238 69.8546 1.18505C69.5634 1.08628 69.2346 0.989507 68.8735 0.896327L55.741 0.583649C55.1894 0.567322 54.6515 0.558532 54.1301 0.557318C52.5963 0.554599 51.0154 0.530275 49.3951 0.484465C47.794 0.441435 46.2645 0.449073 44.7133 0.436118C44.2565 0.431778 43.7875 0.421538 43.3083 0.405428C40.0696 0.277926 36.9115 0.200049 33.8562 0.172356C32.5709 0.168426 31.1823 0.10991 29.8719 0.0909443C28.5615 0.0719764 26.7696 0.0650333 25.2151 0.0576405L20.4025 0.0587748C19.4559 0.0550024 18.5342 0.0662619 17.6159 0.0719618C16.5015 -0.334801 16.1174 -0.430143 14.6303 -0.608351C14.1216 -0.674088 13.6041 -0.713317 13.1386 -0.721446C11.6624 -0.68929 9.81009 -0.823145 8.4102 -0.805423C7.56549 -0.814165 6.84871 -0.768977 6.33325 -0.674487C5.88579 -0.600329 5.37412 -0.541651 4.80613 -0.499337C3.25021 -0.847313 3.11309 -1.07331 4.2835 -1.16126C4.6006 -1.18171 5.03739 -1.17538 5.26637 -1.21868C5.39776 -1.24506 5.57725 -1.26014 5.79054 -1.26274C6.00383 -1.26535 6.24501 -1.25541 6.49518 -1.23371C7.28472 -1.17676 8.02475 -1.16337 8.64101 -1.19487C9.22098 -1.23657 9.9319 -1.23491 10.7052 -1.19004C11.2735 -1.11966 11.773 -1.21903 12.2644 -1.24775C12.7558 -1.27646 13.1591 -1.32804 13.9267 -1.25089C14.0673 -1.23553 14.2068 -1.2263 14.3346 -1.22393C14.4625 -1.22155 14.5752 -1.22609 14.6641 -1.23719C15.4885 -1.28688 16.4723 -1.28166 17.5356 -1.22196C19.1663 -1.16321 20.6963 -1.161 22.0726 -1.21542C22.8964 -1.26304 23.5989 -1.34748 24.1524 -1.46545C24.3033 -1.5049 24.5273 -1.52856 24.803 -1.53416C26.1878 -1.50954 27.6913 -1.41691 29.2167 -1.26222C29.7914 -1.20024 30.3653 -1.15122 30.9262 -1.11619C32.079 -1.03838 33.194 -0.994774 34.2382 -0.986671C35.7554 -0.985387 37.3351 -0.955449 38.9633 -0.897127C39.968 -0.864654 40.9362 -0.852669 41.8563 -0.861301C42.802 -0.86537 43.8117 -0.8406 44.8625 -0.787565C45.9076 -0.744348 46.8285 -0.769248 47.5143 -0.859255C47.7402 -0.907756 47.9221 -0.96535 48.0566 -1.03096C46.5265 -1.24447 44.9441 -1.35297 43.6279 -1.33463C43.1279 -1.34877 42.7128 -1.33449 42.186 -1.41766L42.1695 -1.38984C42.0647 -1.37179 41.9065 -1.36753 41.7252 -1.37788C41.5438 -1.38822 41.352 -1.41244 41.1862 -1.44594C41.2488 -1.55164 41.3082 -1.65179 41.3511 -1.72411C42.3539 -1.71136 43.3276 -1.71239 44.2673 -1.72722C45.0593 -1.74856 46.1346 -1.56164 46.8201 -1.632C48.1574 -1.54402 49.0088 -1.6655 50.208 -1.63045C51.4071 -1.59539 52.7279 -1.47959 53.9271 -1.44453C54.9735 -1.4253 55.9895 -1.42111 56.9695 -1.43201C57.3078 -1.4473 57.6977 -1.44371 58.1154 -1.42147C58.7026 -1.37961 59.2488 -1.3726 59.6913 -1.40123C60.1338 -1.42987 60.4547 -1.493 60.6174 -1.58338C60.4642 -1.66804 60.2579 -1.7772 60.0199 -1.89028C60.4577 -1.98319 61.1225 -2.02232 61.9159 -2.00183L63.0369 -2.00632C63.3339 -2.00386 63.561 -2.02899 63.6711 -2.07648C63.7813 -2.12397 63.7661 -2.1902 63.6286 -2.26148C61.5031 -2.62029 61.4248 -2.65984 59.8647 -2.42905L57.7934 -2.5363L57.8283 -2.53795ZM85.8451 -1.55231L85.6873 -1.57185L85.8451 -1.55231ZM343.978 36.623L343.942 36.6842L343.981 36.6174L344.328 36.6604L344.351 36.6215L343.978 36.623ZM293.557 9.79901C293.067 9.73225 292.571 9.67086 292.074 9.61524C291.943 9.60661 291.822 9.60466 291.718 9.60956C291.615 9.61445 291.534 9.62604 291.481 9.64334C291.441 9.7101 291.719 9.75643 291.971 9.78771C292.29 9.82981 292.615 9.85656 292.914 9.86521C293.213 9.87386 293.474 9.86409 293.671 9.83691L293.956 9.81255L293.557 9.79901ZM40.7375 26.0709C41.0607 26.0821 41.3671 26.084 41.6493 26.0763C42.9012 26.0224 44.0998 25.9439 45.3833 25.8938C47.0028 25.7668 48.8637 25.715 50.8962 25.7406C51.6903 25.753 52.3611 25.7118 52.8305 25.6218C53.1114 25.5735 53.4741 25.5453 53.8962 25.5388L59.2696 25.3921C59.6017 25.3617 59.8889 25.319 60.1243 25.2651C59.6508 25.2064 59.3351 25.1673 59.1457 25.1439C58.7526 25.1373 58.4148 25.1552 58.1661 25.1957C57.8989 25.2645 57.4473 25.2917 56.9009 25.2719C56.3494 25.2556 55.8115 25.2468 55.29 25.2456C54.3052 25.2491 53.3138 25.2636 52.3257 25.2726C51.9412 25.4639 50.8066 25.3771 49.835 25.3583L49.0844 25.3669C46.6309 25.466 44.2872 25.6024 42.0648 25.7754C41.6352 25.8047 41.2652 25.8514 40.966 25.9141C40.8533 25.963 40.8172 26.0239 40.8605 26.0921L40.7027 26.0726L40.7375 26.0709ZM150.301 44.3585C150.897 44.3715 151.516 44.3983 152.152 44.4384C152.641 44.4793 153.119 44.5042 153.565 44.5119C156.068 44.5548 158.676 44.6538 161.354 44.8077C161.704 44.831 162.04 44.8424 162.35 44.8415L164.542 44.8025C165.233 44.7805 165.246 44.7583 164.743 44.4631C164.326 44.4058 163.904 44.3536 163.48 44.3067C163.228 44.2754 162.818 44.2246 162.721 44.2724C162.136 44.4029 161.068 44.3184 160.169 44.2907C157.568 44.2194 154.886 44.1141 152.26 44.0277C151.704 44.0066 151.167 43.996 150.652 43.9958C150.332 43.9914 150.041 43.9997 149.79 44.0205C149.717 44.0226 149.655 44.0288 149.61 44.0386C149.565 44.0484 149.536 44.0617 149.527 44.0775C149.517 44.0932 149.527 44.1112 149.556 44.1302C149.584 44.1491 149.63 44.1686 149.691 44.1874C149.906 44.2531 150.154 44.3161 150.428 44.3742L150.301 44.3585ZM169.355 1.51679L171.917 1.48179C172.224 1.47804 172.485 1.43865 172.814 1.45549C174.568 1.50888 176.193 1.49401 177.618 1.41151C178.103 1.37784 178.671 1.37111 179.29 1.39169C181.186 1.45265 182.974 1.45516 184.606 1.39914C185.661 1.3879 186.648 1.35013 187.553 1.28641C187.623 1.27162 187.666 1.25154 187.681 1.22753C187.695 1.20353 187.68 1.17617 187.636 1.14732C187.624 1.1291 187.593 1.10949 187.545 1.08986C187.496 1.07022 187.432 1.05102 187.355 1.03358C187.278 1.01614 187.192 1.00088 187.101 0.988847C187.01 0.97681 186.918 0.968279 186.83 0.963852C185.686 0.8776 184.601 0.847552 183.662 0.876147C182.792 0.91036 181.855 0.920372 180.866 0.906025C179.919 0.902252 179.277 1.01381 178.107 0.928688C177.613 0.900655 177.176 0.909884 176.872 0.954827C176.259 1.02932 175.404 1.03346 174.459 0.96652C173.893 0.93264 173.353 0.918111 172.858 0.923486C171.657 0.947979 170.51 0.99698 169.398 1.04433C169.047 1.05528 168.671 1.05679 168.277 1.04883L162.706 0.956115C161.368 0.927673 160.032 0.89367 158.719 0.880265C157.644 0.851163 156.644 0.860277 155.754 0.907289C154.805 0.956699 153.771 0.976758 152.669 0.967088C150.959 0.994129 149.258 1.00447 147.396 1.00083C146.209 1.00307 144.993 0.995839 143.753 0.973566C143.125 0.944898 142.592 0.968244 142.257 1.03911C142.053 1.09745 141.573 1.04992 141.174 1.03638C139.048 0.905883 137.054 0.874964 135.331 0.945771C135.111 0.95731 134.87 0.961486 134.612 0.95823C132.953 0.9558 131.234 0.939983 129.642 0.939809C129.222 0.94531 128.828 0.960405 128.463 0.984903C128.502 1.02487 128.613 1.06819 128.774 1.10588C128.935 1.14357 129.132 1.17273 129.326 1.18732C130.832 1.29898 132.286 1.35797 133.628 1.3618C135.86 1.34758 138.199 1.37956 140.62 1.4574C142.498 1.53588 144.21 1.51936 145.63 1.40906C146.739 1.32676 148.183 1.35773 149.712 1.49664C150.366 1.56298 151.002 1.58951 151.531 1.5726C152.04 1.55041 152.624 1.55579 153.25 1.58842C154.568 1.65046 155.836 1.67923 157.028 1.67419C158.194 1.65135 159.281 1.58896 160.479 1.57003C161.676 1.55111 163.499 1.56195 164.976 1.5298C166.452 1.49764 167.912 1.49331 169.355 1.51679ZM63.1825 -1.73746C63.3178 -1.56543 63.7965 -1.45836 64.3116 -1.41249C66.0871 -1.20881 67.8425 -1.12214 69.283 -1.16702C70.0611 -1.22962 71.0985 -1.20553 72.1912 -1.09946C73.4635 -0.989214 74.6527 -0.970929 75.5493 -1.04784C75.769 -1.06127 75.9371 -1.08968 76.0389 -1.13053C76.0587 -1.16391 76.0949 -1.22511 76.1015 -1.23624C76.0073 -1.26445 75.8918 -1.2906 75.7639 -1.31266C75.6359 -1.33472 75.499 -1.3521 75.3637 -1.36345L69.4823 -1.56037L68.4574 -1.60371C66.5854 -1.71723 64.8016 -1.76246 63.1825 -1.73746ZM74.7511 0.985284C75.669 1.26619 75.6722 1.26061 76.1425 1.32482C78.4112 1.59155 80.6783 1.73553 82.6741 1.73964C83.1177 1.73883 83.4942 1.71171 83.7716 1.66057C83.9144 1.65364 84.0052 1.63162 84.0244 1.59931C84.0435 1.56701 83.9894 1.52703 83.8738 1.4881L83.1439 1.29021C81.8183 1.20454 80.5118 1.13646 79.2321 1.0864C77.7422 1.02728 76.4219 1.025 74.8773 1.00092L74.7511 0.985284ZM150.191 43.1147C151.047 43.5013 151.05 43.4957 152.482 43.5954C153.48 43.6661 154.448 43.7076 155.357 43.7186C156.468 43.7308 157.607 43.7525 158.715 43.7703C158.986 43.7826 159.215 43.7724 159.359 43.7416C159.502 43.7108 159.55 43.6616 159.492 43.6037C159.346 43.5408 159.119 43.4799 158.846 43.431C158.574 43.382 158.272 43.3479 157.991 43.3342L157.386 43.325C156.652 43.3057 155.89 43.277 155.181 43.2728C154.721 43.2888 154.188 43.2764 153.623 43.2366C153.059 43.1967 152.479 43.1305 151.928 43.0431L150.191 43.1147ZM79.3183 -1.23197C79.5467 -1.16502 79.805 -1.10089 80.0863 -1.0413C81.1757 -0.876126 82.3287 -0.782316 83.3192 -0.778256C83.7876 -0.768025 84.2159 -0.804556 84.6927 -0.751469C85.548 -0.68053 86.3768 -0.642742 87.1345 -0.64015C87.1345 -0.64015 87.3469 -0.65564 87.4167 -0.658948L87.5618 -0.903743C87.2031 -0.960453 86.829 -1.00678 86.4568 -1.0406C85.2077 -1.10573 83.9802 -1.15025 82.7561 -1.20034C81.5319 -1.25043 81.1051 -1.27344 80.3045 -1.29496C79.9474 -1.28313 79.6171 -1.26203 79.3183 -1.23197ZM52.268 29.201L53.9027 29.702C54.4317 29.7456 54.9258 29.7535 55.31 29.7245C55.6942 29.6956 55.9473 29.6313 56.0309 29.5416C56.1655 29.4996 56.179 29.4375 56.0685 29.3681C55.958 29.2987 55.732 29.2276 55.4381 29.1696C55.1552 29.1008 54.8323 29.0392 54.4893 28.9885C54.1462 28.9378 53.7905 28.8991 53.4441 28.8749L52.268 29.201ZM65.8782 26.7063C64.809 26.6213 63.7864 26.5866 62.8885 26.6047C62.3228 26.6545 61.5563 26.6386 60.7461 26.5604C59.2727 26.4045 57.8523 26.3613 56.7848 26.44C56.7848 26.44 56.7452 26.5068 56.5642 26.5262C56.3833 26.5456 57.1009 26.5926 57.2588 26.6122C58.4165 26.66 59.5808 26.6967 60.5873 26.7139C61.2121 26.7131 61.873 26.7289 62.5587 26.761C63.5021 26.8104 64.3967 26.8264 65.2077 26.8084C65.2077 26.8084 65.5215 26.7935 65.8749 26.7119L65.8782 26.7063ZM180.059 0.609031C179.548 0.51467 178.995 0.437977 178.439 0.384711C177.884 0.331447 177.341 0.302996 176.853 0.30148C176.478 0.296557 176.175 0.321471 175.992 0.372285C175.808 0.423097 175.754 0.496911 175.839 0.582053C176.218 0.628972 176.723 0.691532 177.007 0.726722C177.992 0.723278 178.832 0.678032 180.059 0.609031ZM275.653 8.56091C275.243 8.48494 274.792 8.42687 274.351 8.3933C273.909 8.35974 273.495 8.35205 273.156 8.37111C272.982 8.37938 273.1 8.46569 273.071 8.51576C273.051 8.52712 273.052 8.54123 273.071 8.55664C273.091 8.57205 273.13 8.58818 273.183 8.60334C273.237 8.6185 273.303 8.63213 273.375 8.64281C273.447 8.65349 273.522 8.66082 273.593 8.66403C274.037 8.69675 274.457 8.70649 274.814 8.69238C275.171 8.67827 275.455 8.64075 275.64 8.58316L275.653 8.56091ZM282.058 9.64681C281.995 9.60198 281.86 9.55527 281.678 9.51522C281.497 9.47517 281.28 9.44447 281.069 9.42876C280.696 9.42665 280.357 9.43908 280.065 9.46558C279.747 9.48603 279.976 9.6158 280.404 9.6928C280.586 9.72371 280.78 9.74781 280.971 9.7632C281.162 9.7786 281.345 9.78484 281.505 9.78146C281.665 9.77808 281.797 9.76515 281.892 9.7437C281.987 9.72226 282.042 9.69289 282.052 9.65793L282.058 9.64681ZM95.9456 -0.755202C94.99 -0.915359 94.2545 -0.875067 93.4455 -0.939438C92.6364 -1.00381 92.4371 -1.01058 92.5455 -0.907575C92.6539 -0.804572 93.2085 -0.825462 93.5558 -0.782451C94.025 -0.725379 94.497 -0.692609 94.919 -0.687795C95.3411 -0.682982 95.6966 -0.706321 95.9456 -0.755202ZM295.071 26.3435C294.565 26.3076 294.069 26.2822 293.591 26.2677C293.528 26.2826 293.488 26.3021 293.475 26.3251C293.461 26.348 293.474 26.3739 293.512 26.4013C293.512 26.4013 293.836 26.4832 294.025 26.5067C294.723 26.5871 294.757 26.472 295.071 26.3435ZM366.608 41.2652C366.951 41.3733 367.111 41.4468 367.385 41.4987C367.511 41.5167 367.641 41.5298 367.766 41.537C367.891 41.5442 368.007 41.5453 368.106 41.5402C368.226 41.5091 368.255 41.4614 368.185 41.4067C368.185 41.4067 367.836 41.3097 367.703 41.3052C367.324 41.2823 366.956 41.2689 366.608 41.2652ZM79.6801 -1.67089C78.954 -1.76082 78.2594 -1.84685 77.7567 -1.7419C78.9097 -1.62895 78.9098 -1.62895 79.6801 -1.67089ZM91.4406 -0.644299C90.7074 -0.836631 90.2772 -0.854085 89.9252 -0.831986C89.8504 -0.82642 89.8009 -0.814014 89.7842 -0.796652C89.7675 -0.779291 89.7845 -0.757916 89.8326 -0.73576C89.8807 -0.713604 89.9574 -0.691875 90.0509 -0.673856C90.1445 -0.655838 90.2499 -0.642513 90.3512 -0.635897C90.7336 -0.630361 91.0982 -0.633172 91.4406 -0.644299ZM129.177 -0.56297C129.193 -0.590788 129.213 -0.624169 129.024 -0.647629C128.974 -0.659539 128.916 -0.66978 128.855 -0.67733C128.794 -0.68488 128.732 -0.689467 128.677 -0.690634C128.677 -0.690634 128.657 -0.657252 128.644 -0.634998L129.177 -0.56297ZM155.382 45.6208L154.96 45.6462L155.15 45.6696L155.65 45.6838L155.382 45.6208ZM303.868 9.21274C303.71 9.19319 303.552 9.17364 303.529 9.21258C303.496 9.21861 303.475 9.22732 303.469 9.23796C303.462 9.24861 303.471 9.26089 303.493 9.27378C303.493 9.27378 303.714 9.30115 303.808 9.31288L303.868 9.21274ZM279.284 9.52422C279.18 9.52198 279.087 9.52459 279.009 9.53188L278.989 9.56527L279.305 9.60437L279.284 9.52422ZM65.0444 17.4779C64.9225 17.4576 64.7932 17.4416 64.6656 17.431L64.5077 17.4114C64.5077 17.4114 64.6773 17.4683 64.772 17.48C64.8667 17.4917 64.9431 17.4773 65.0444 17.4779Z" fill="#DF6951"/>
</g>
</svg>
