<svg width="16.250244" height="16.250488" viewBox="0 0 16.2502 16.2505" fill="none" xmlns="http://www.w3.org/2000/svg" xmlns:xlink="http://www.w3.org/1999/xlink">
	<desc>
			Created with Pixso.
	</desc>
	<defs/>
	<path id="Vector" d="M16.1935 0.88562L9.31854 15.8856C9.26105 16.0112 9.16351 16.1143 9.0412 16.1786C8.91888 16.2429 8.77869 16.2649 8.64258 16.2411C8.50647 16.2172 8.38208 16.1489 8.28888 16.0469C8.19562 15.9449 8.13892 15.8148 8.12744 15.6771L7.5462 8.70422L0.573242 8.12292C0.435547 8.11145 0.305481 8.05469 0.203491 7.96155C0.10144 7.86829 0.0332031 7.7439 0.00933838 7.60779C-0.0144653 7.47168 0.00750732 7.33154 0.0718384 7.20923C0.136108 7.08691 0.239197 6.98938 0.364807 6.93188L15.3648 0.0568848C15.4808 0.00366211 15.6102 -0.0126953 15.7358 0.0098877C15.8613 0.0324707 15.9769 0.0928955 16.0671 0.183105C16.1573 0.273315 16.2178 0.388916 16.2404 0.514404C16.2629 0.640015 16.2465 0.769409 16.1934 0.885376L16.1935 0.88562Z" fill="#080809" fill-opacity="1.000000" fill-rule="nonzero"/>
</svg>
